Coordinates
version=1
nRows=12
nColumns=34
inDegrees=no

Units are S.I. units (second, meters, Newtons, ...)
If the header above contains a line with 'inDegrees', this indicates whether rotational values are in degrees (yes) or radians (no).

endheader
time	pelvis_tilt	pelvis_list	pelvis_rotation	pelvis_tx	pelvis_ty	pelvis_tz	hip_flexion_r	hip_adduction_r	hip_rotation_r	knee_angle_r	ankle_angle_r	subtalar_angle_r	mtp_angle_r	hip_flexion_l	hip_adduction_l	hip_rotation_l	knee_angle_l	ankle_angle_l	subtalar_angle_l	mtp_angle_l	lumbar_extension	lumbar_bending	lumbar_rotation	arm_flex_r	arm_add_r	arm_rot_r	elbow_flex_r	pro_sup_r	arm_flex_l	arm_add_l	arm_rot_l	elbow_flex_l	pro_sup_l
0.87	0.0321953	0.100129	0.0271421	0.952014	0.964755	-0.212848	0.463647	-0.160697	0.0398385	0.991638	0.0214668	-0.285643	-0.0107614	0.0392376	0.145565	-0.226352	0.229317	0.27415	0.300546	-0.0107871	-0.226415	-0.144211	-0.154518	-0.12917	-0.252618	0.249294	0.669062	1.87948	0.0945368	-0.23812	-0.0615318	0.874883	1.74495
0.88	0.0335301	0.096978	0.03099	0.963538	0.964888	-0.213121	0.470224	-0.157921	0.030375	0.943314	0.0352661	-0.249393	-0.0107582	0.01751	0.142767	-0.227445	0.21802	0.284627	0.318627	-0.0107839	-0.22931	-0.139147	-0.156457	-0.144594	-0.252896	0.247615	0.640549	1.87639	0.115677	-0.242531	-0.0493152	0.895555	1.74989
0.89	0.0349224	0.0948905	0.0340351	0.975103	0.964729	-0.213292	0.475322	-0.156567	0.0187017	0.891706	0.048	-0.210066	-0.010755	-0.00400569	0.140746	-0.229568	0.20727	0.295157	0.33656	-0.0107807	-0.232111	-0.135532	-0.157557	-0.159747	-0.253284	0.246534	0.613558	1.8735	0.136418	-0.247208	-0.0366279	0.916341	1.75399
0.9	0.0363521	0.0938697	0.0364106	0.98672	0.964281	-0.213369	0.478981	-0.156769	0.00366491	0.837307	0.0598931	-0.166223	-0.0107518	-0.0253303	0.139592	-0.232423	0.197056	0.305698	0.354112	-0.0107775	-0.234805	-0.133361	-0.158049	-0.174627	-0.253741	0.24601	0.588344	1.87108	0.156677	-0.252133	-0.0236033	0.937138	1.75717
0.91	0.0377512	0.0938755	0.0382803	0.998395	0.963549	-0.213362	0.48135	-0.158602	-0.0159835	0.780778	0.0712154	-0.116565	-0.0107487	-0.0463959	0.139322	-0.235722	0.187425	0.316254	0.371085	-0.0107743	-0.237336	-0.132571	-0.158162	-0.189252	-0.254214	0.245833	0.565229	1.86928	0.176379	-0.257279	-0.0104024	0.957833	1.75951
0.92	0.0390054	0.0948211	0.0398099	1.01013	0.962535	-0.21328	0.482699	-0.162035	-0.0414059	0.722956	0.082239	-0.0603091	-0.0107455	-0.0670321	0.139869	-0.239219	0.178498	0.326876	0.387317	-0.0107711	-0.239609	-0.133047	-0.158098	-0.203647	-0.254646	0.245677	0.544562	1.86809	0.195462	-0.262603	0.00279475	0.978314	1.76124
0.93	0.0399599	0.0965694	0.0411415	1.02192	0.961243	-0.213133	0.48341	-0.166894	-0.073457	0.664836	0.093194	0.00243468	-0.0107423	-0.0869685	0.141085	-0.24273	0.170477	0.337652	0.402677	-0.0107679	-0.241497	-0.134624	-0.158008	-0.217821	-0.254981	0.245163	0.526653	1.86742	0.213874	-0.268057	0.015793	0.998472	1.76267
0.94	0.0404334	0.098933	0.0423778	1.03375	0.959676	-0.212924	0.483948	-0.172836	-0.112451	0.607524	0.104238	0.0703782	-0.0107391	-0.105852	0.142731	-0.246142	0.163651	0.348707	0.417069	-0.0107648	-0.242851	-0.137087	-0.157981	-0.231753	-0.255173	0.243941	0.511713	1.8671	0.231566	-0.273577	0.0283841	1.01821	1.76415
0.95	0.0402416	0.101678	0.0435791	1.04563	0.957846	-0.212652	0.484805	-0.179348	-0.157969	0.552182	0.115451	0.140964	-0.0107359	-0.123279	0.144494	-0.249423	0.158385	0.360184	0.430435	-0.0107616	-0.243519	-0.140172	-0.158044	-0.245385	-0.255193	0.241749	0.499811	1.86697	0.248489	-0.279088	0.0403499	1.03743	1.76601
0.96	0.0392289	0.104533	0.044775	1.05754	0.955771	-0.212313	0.486429	-0.18579	-0.20876	0.499956	0.126857	0.210566	-0.0107327	-0.138853	0.145993	-0.252604	0.155092	0.37223	0.442765	-0.0107584	-0.243365	-0.14357	-0.15818	-0.258624	-0.255029	0.238451	0.490859	1.86688	0.264584	-0.284499	0.0514697	1.05605	1.76848
0.97	0.0373055	0.107204	0.0459871	1.06949	0.953476	-0.2119	0.489138	-0.191482	-0.262794	0.45191	0.138457	0.275031	-0.0107295	-0.152244	0.146813	-0.25576	0.154193	0.384967	0.454103	-0.0107552	-0.242301	-0.146936	-0.158359	-0.271351	-0.254691	0.234041	0.484625	1.86673	0.279771	-0.289703	0.0615306	1.07395	1.77172
0.98	0.0344855	0.109396	0.0472555	1.08149	0.951	-0.211405	0.493037	-0.195817	-0.31749	0.408969	0.150257	0.330509	-0.0107263	-0.16327	0.146537	-0.258965	0.156062	0.398452	0.464542	-0.010752	-0.24032	-0.14991	-0.158564	-0.283436	-0.254206	0.228617	0.480774	1.86645	0.293941	-0.294576	0.0703412	1.09105	1.7758
